# xmcd
#
# Track frame offsets:
#	150
#	16645
#	31141
#	41724
#	64744
#	79090
#	96085
#	109306
#	120389
#	130822
#	145675
#	160688
#
# Disc length: 2326 seconds
#
# Revision: 1
# Processed by: cddbd v1.5.2PL0 Copyright (c) Steve Scherf et al.
# Submitted via: audiograbber 1.83.01
#
DISCID=8e09140c
DTITLE=David Hill - Second Chances David Hill
DYEAR=2000
DGENRE=Blues
TTITLE0=Memphis Blues
TTITLE1=Second Chances
TTITLE2=Hard Life
TTITLE3=When I Look Into Your Eyes
TTITLE4=Come With Me
TTITLE5=Crayons And Pen
TTITLE6=When He Left You
TTITLE7=In And Out
TTITLE8=You Are Perfect
TTITLE9=Outlaw To Love
TTITLE10=Forgive Me
TTITLE11=The Money That I´ve Spent
EXTD=
EXTT0=
EXTT1=
EXTT2=
EXTT3=
EXTT4=
EXTT5=
EXTT6=
EXTT7=
EXTT8=
EXTT9=
EXTT10=
EXTT11=
PLAYORDER=
